Patient4_TMGait_0pt4_03_right_10_EMG.mot
version=1
nRows=20
nColumns=33
inDegrees=no
endheader
time	1LAddLong	2LGlutMax	3LGlutMed	4LIliopsoas	5LSemiMemb	6LBicFemLong	7LRecFem	8LVastMed	9LVastLat	10LGasMed	11LTibAnt	12lTibPost	13LPeroneusLong	14LSol	15LExtDigLong	16LFlexDigLong	17RAddLong	18RGlutMax	19RGlutMed	20RIliopsoas	21RSemiMemb	22RBicFemLong	23RRecFem	24RVastMed	25RVastLat	26RGasMed	27RTibAnt	28RTibPost	29RPeroneusLong	30RSol	31RExtDigLong	32RFlexDigLong
12.08	-0.010071	-0.20401	-0.13473	0.029755	0.00824	0.000916	0.002899	0.001678	-0.15442	0.007019	-0.095825	0.001526	-0.001068	-0.081787	0.14099	0.00885	0.25589	0.038605	-0.50797	0.17075	0.080414	-0.12177	0.1474	-0.16342	0.001984	-0.009003	0.067444	0.007172	-0.003967	0.031586	-0.006104	-0.017242
12.081	-0.027313	-0.20935	-0.15198	0.024414	-0.015717	-0.014954	0.097809	0.018311	-0.31296	0.002899	-0.38315	0.018158	0.01297	0.017548	0.17349	0.001678	0.1326	0.037079	-0.48477	0.24002	0.068512	-0.1004	0.1239	-0.12543	-0.002441	0.002747	0.012054	0.005493	0.016785	-0.011444	-0.002747	-0.0177
12.082	-0.022888	-0.14053	-0.031738	0.022583	-0.039978	0.003662	0.14084	0.025024	-0.15381	0.013733	-0.18906	0.00061	0.000763	0.018616	0.2803	-0.001068	-0.024261	0.044861	0.23712	0.18188	0.065308	-0.084686	0.17731	-0.071411	-0.003052	0.013428	0.1239	0.009918	-0.008392	-0.054474	-0.00412	-0.016632
12.083	-0.024719	-0.10452	0.032043	0.007629	-0.018005	0.01709	0.14404	0.009918	-0.092926	0.02121	-0.11887	0.007172	0.011749	-0.043335	0.12756	-0.008392	-0.13092	0.085907	0.56458	-0.007477	0.072174	-0.05722	0.16266	-0.047455	0.023956	0.018463	0.49789	0.009003	0.066681	-0.085449	-0.010681	-0.021057
12.084	0.003052	-0.13534	-0.058746	-0.001526	0.046997	-0.003967	0.068359	-0.002899	-0.039215	0.023193	-0.03067	0.009308	0.03418	-0.038452	0.12238	0.005035	-0.16571	0.018921	0.57922	-0.082397	0.090332	-0.012207	0.16937	-0.027313	0.033112	0.003357	0.39063	0.00885	0.26733	-0.049591	-0.004883	-0.009308
12.085	0.019073	-0.16922	-0.12039	-0.002289	0.055084	-0.002136	0.030975	0.001221	-0.018921	0.011444	0.077057	0.011139	0.024872	-0.076752	0.036621	0.010986	-0.16022	0.009613	0.42847	-0.040283	0.10788	0.02182	0.14999	0.023804	0.070648	0.001068	-0.07843	0.004883	-0.014801	-0.049744	-0.004578	-0.014954
12.086	0.01358	-0.15839	-0.026398	0.000153	0.037842	0.014191	0.0177	0.001831	-0.020142	0.006256	0.18066	0.00412	0.010223	-0.057068	0.086517	0.005646	-0.13275	-0.02121	0.042725	0.029907	0.11536	0.032043	0.19363	0.049896	0.037079	-0.005035	-0.62927	0.004425	-0.00412	-0.022125	-0.006256	-0.01236
12.087	-0.000305	-0.096893	0.019073	-0.002899	0.024872	0.027313	0.028992	0.007172	-0.003967	-0.010071	0.15167	0.008545	-0.027618	-0.014648	-0.066223	0.002594	-0.15259	-0.00473	-0.18753	0.056152	0.10651	0.023041	0.20798	0.06958	0.050659	-0.00473	-0.15381	0.00824	0.10513	-0.05188	-0.001678	-0.017242
12.088	0.002899	-0.081329	0.015869	-0.011292	0.034332	0.006104	0.034332	0.007935	-0.05249	-0.009766	0.03067	0.002136	0.069275	-0.00473	-0.2507	0.013428	-0.16052	-0.001373	-0.084839	0.019684	0.13092	-0.001373	0.1535	0.02655	0.034943	-0.000305	0.025024	0.006256	0.066376	-0.070648	-0.007324	-0.009308
12.089	0.00351	-0.080719	0.046082	-0.013733	0.039978	0.007172	0.039978	-0.001068	-0.09903	0.024109	-0.003815	0.009918	-0.003815	-0.01297	0.22003	0.010834	-0.14374	0.033722	0.20828	-0.033722	0.12878	-0.040283	0.13718	0.059052	0.036621	0.00412	-0.40146	0.011139	-0.24338	0.037689	-0.004578	-0.010834
12.09	-0.003357	-0.050507	0.079956	-0.011139	0.03479	0.015259	0.048218	0.000458	-0.054016	0.041199	-0.1001	0.009766	-0.075226	0.018921	0.030823	0.007629	-0.10284	0.048065	0.16434	-0.040131	0.13153	-0.079651	-0.015106	0.010529	0.007782	-0.000153	-0.39169	0.004425	-0.29343	0.02594	-0.007019	-0.002289
12.091	0.001373	-0.018311	0.067902	0.007019	0.003662	0.022736	0.024567	-0.005493	0.01358	-0.010681	-0.091248	0.007477	-0.007019	0.048828	0.069275	0.006866	-0.088043	0.021362	0.15808	-0.075989	0.12085	-0.066681	0.008087	0.017242	0.017395	0.003815	-0.13321	0.007782	0.056305	-0.025177	-0.00412	0.00824
12.092	-0.010986	-0.026703	0.002747	0.022583	-0.014954	-0.017548	0.04776	-0.013428	0.059662	-0.035248	-0.055542	0.000305	0.020752	0.018616	-0.052948	0.010681	-0.067749	-0.007019	0.13596	-0.029755	0.10056	-0.046844	0.054016	-0.052948	0.007629	0.004425	-0.014343	0.019073	0.044708	-0.026093	-0.003815	-0.010376
12.093	-0.002594	-0.010376	-0.012512	0.017548	-0.004883	-0.026398	0.028229	-0.000763	0.05127	-0.015106	-0.060883	0.010223	0.14526	0.04303	-0.10025	0.016479	-0.035248	0.025787	0.050354	0.013123	0.070801	-0.041962	0.080109	-0.03891	0.015106	0.001373	-0.053101	0.008087	0.11795	0.072479	-0.00473	-0.005188
12.094	0.001373	0.011139	-0.04303	0.024414	-0.003815	-0.036774	-0.006866	0.001984	0.15198	-0.009918	-0.028381	0.00061	0.053101	-0.019836	0.63004	0.011749	-0.007019	0.032043	-0.033112	0.04715	0.061493	-0.031128	0.093536	-0.065002	0.028839	-0.001221	0.048981	0.005951	0.041199	0.13825	-0.00824	-0.006256
12.095	0.009766	0.004272	-0.02655	0.016632	-0.003662	-0.034485	-0.019989	-0.005951	0.074921	0.020599	0.027008	0.00473	-0.079193	-0.10284	0.31265	0.007019	0.006714	-0.005341	0.21072	0.043182	0.068512	-0.014801	0.10086	-0.044403	0.03067	0.001221	-0.034485	0.006714	-0.003052	0.098114	-0.003967	-0.000763
12.096	0.014496	0.019379	-0.041809	0.016327	0.015717	-0.026855	-0.000763	-0.011902	0.035095	-0.009918	0.022125	0.004883	-0.11719	-0.018921	-0.71137	0.007019	0.020294	-0.007172	-0.056	-0.01297	0.063019	0.002747	0.089264	-0.052795	0.023499	0.01236	-0.11124	0.00946	-0.042877	0.072327	-0.005188	-0.003662
12.097	0.005341	0.046692	-0.006104	0.002136	0.043335	0.004425	0.013733	-0.00885	0.037384	-0.001831	0.000305	0.010681	-0.17181	-0.006714	-0.32791	-0.001678	0.026855	-0.036926	-0.18051	-0.007324	0.053253	-0.009155	0.10956	-0.11734	0.024414	0.005035	-0.094604	0.004883	-0.014801	0.079498	-0.005646	0.004578
12.098	0.001831	0.029755	-0.025787	-0.000763	0.015717	0.005493	0.029297	-0.016937	-0.016632	0.01297	0.023041	0.003357	-0.095215	-0.000763	-0.45715	-0.016632	0.027924	-0.03067	-0.3775	0.067139	0.065918	-0.06012	0.11429	-0.046539	0.009613	0.004883	-0.001221	0.007629	-0.13473	0.033569	-0.003052	-0.011292
12.099	-0.013123	0.036163	-0.076752	-0.000916	0.016022	-0.01358	0.018311	-0.010986	-0.027771	0.020447	0.029602	0.012207	0.048676	-0.04425	-0.30823	-0.012665	0.019226	-0.059662	-0.45425	0.11856	0.091095	-0.06546	0.072327	-0.025635	0.015869	0.002899	0.059357	0.00824	-0.13611	0.00412	-0.00061	-0.007324
